# xmcd
#
# Track frame offsets: 
#        150
#        12377
#        31543
#        48624
#        64236
#        84304
#        100398
#        115465
#        126510
#        140403
#        157207
#        196540
#        216457
#        229217
#        244862
#        266254
#        283827
#        296445
#
# Disc length: 4198 seconds
#
# Revision: 0
# Processed by: cddbd v1.5.2PL0 Copyright (c) Steve Scherf et al.
# Submitted via: ExactAudioCopy v1.3
#
DISCID=10106412
DTITLE=Various Artist - Best Of Blues and Roots 2017 [CD1)
DYEAR=2017
DGENRE=Blues
TTITLE0=Nathaniel Rateliff and The Night Sweats - Parlor
TTITLE1=The Record Company - Off The Ground
TTITLE2=Dan Sultan - Magnetic
TTITLE3=St. Paul and The Broken Bones - All I Ever Wonder
TTITLE4=Hollie Smith - Water Or Gold
TTITLE5=Matt Anderson - Honest Man
TTITLE6=Ash Grunwald - Hammer
TTITLE7=Son Little - All Wet
TTITLE8=Elli Schoen - Mumma
TTITLE9=Dustin Tebbutt - Wooden Heart
TTITLE10=William Crighton - Hope Recovery (Talking To God)
TTITLE11=The Stray Birds - Shining In The Distance
TTITLE12=The Wilson Pickers - Pulled Apart By Horses
TTITLE13=Halfway - Bret Canham's Leather Jacket
TTITLE14=Timberwolf - Washed Out
TTITLE15=Billy Bragg and Joe Henry - Hobo's Lullaby
TTITLE16=Esme Patterson - Yours and Mine
TTITLE17=Jeff Lang - Fugitive Ghosts
EXTD=
EXTT0=
EXTT1=
EXTT2=
EXTT3=
EXTT4=
EXTT5=
EXTT6=
EXTT7=
EXTT8=
EXTT9=
EXTT10=
EXTT11=
EXTT12=
EXTT13=
EXTT14=
EXTT15=
EXTT16=
EXTT17=
PLAYORDER=
